<?xml version="1.0" encoding="UTF-8" standalone="no"?>
<svg
   xmlns:dc="http://purl.org/dc/elements/1.1/"
   xmlns:cc="http://creativecommons.org/ns#"
   xmlns:rdf="http://www.w3.org/1999/02/22-rdf-syntax-ns#"
   xmlns:svg="http://www.w3.org/2000/svg"
   xmlns="http://www.w3.org/2000/svg"
   id="svg8"
   version="1.1"
   viewBox="0 0 224.6025 258.36642"
   height="258.36642mm"
   width="224.60249mm">
  <defs
     id="defs2" />
  <metadata
     id="metadata5">
    <rdf:RDF>
      <cc:Work
         rdf:about="">
        <dc:format>image/svg+xml</dc:format>
        <dc:type
           rdf:resource="http://purl.org/dc/dcmitype/StillImage" />
        <dc:title></dc:title>
      </cc:Work>
    </rdf:RDF>
  </metadata>
  <g
     transform="translate(32.922538,-43.395915)"
     id="layer1">
    <path
       id="path3828"
       d="m -32.166718,283.94355 c 0.377,-0.67909 -1.87541,2.81341 0,0 2.75481,-4.13262 4.13363,-5.80106 7.17756,-8.68516 l 3.76772,-3.5699 0.0291,-2.7801 c 0.016,-1.52907 0.0658,-3.17699 0.11055,-3.66206 l 0.0814,-0.88194 0.34653,0.86801 c 0.19059,0.47741 0.244,1.68853 0.1187,2.69138 -0.27548,2.20494 0.1828,2.6591 1.42737,1.41452 0.81184,-0.81184 0.89077,-1.17021 0.9559,-4.34052 0.0702,-3.41699 0.0723,-3.42487 0.19153,-0.70471 0.0831,1.89535 0.26873,2.80778 0.59702,2.93376 0.26207,0.10056 1.60192,-0.38391 2.97744,-1.07661 1.37552,-0.69271 4.28681,-1.758 6.4695303,-2.36733 2.18272,-0.60933 5.2413797,-1.61908 6.7970097,-2.2439 1.55563003,-0.62482 3.22529,-1.25544 3.71036,-1.40138 1.44041,-0.43337 8.06092,-3.33962 11.33187,-4.97443 1.67287,-0.8361 5.00662,-2.15415 7.40833,-2.929 11.62404,-3.7502 16.64579,-5.3323 16.92529,-5.3323 0.16828,0 0.69567,0.76905 1.17197,1.70898 0.89642,1.76899 1.61944,2.39533 4.61394,3.99695 5.36206,2.86793 5.92785,3.06426 9.02504,3.13187 1.63317,0.0357 3.68378,-0.0449 4.5569,-0.17903 0.87313,-0.13411 1.98981,-0.0904 2.48151,0.0971 0.7192,0.2743 1.29491,0.1414 2.9443,-0.67968 1.12765,-0.56136 2.28376,-1.02066 2.56911,-1.02066 0.285358,0 1.039148,-0.39687 1.675108,-0.88194 0.63596,-0.48507 1.60245,-0.88195 2.14776,-0.88195 0.69132,0 1.3825,-0.41107 2.28321,-1.35791 0.91536,-0.96225 1.90168,-1.54252 3.38496,-1.99145 1.15127,-0.34843 2.96633,-0.91456 4.03349,-1.25806 2.52868,-0.81394 5.41814,-0.58017 5.10297,0.41285 -0.18805,0.59251 -0.1157,0.61194 0.81094,0.2177 0.55958,-0.23806 1.40256,-0.69553 1.873277,-1.01657 0.71049,-0.48458 0.77693,-0.66434 0.39114,-1.05834 -0.3885,-0.39676 -0.547017,-0.36311 -0.966487,0.2052 -0.27598,0.37389 -0.61406,0.56751 -0.7513,0.43028 -0.13723,-0.13724 0.1726,-0.67164 0.68852,-1.18756 0.854127,-0.85413 1.017037,-0.89575 1.821347,-0.4653 0.60847,0.32564 1.02426,0.36156 1.33631,0.11542 0.24915,-0.19651 0.88956,-0.46159 1.42314,-0.58906 1.08243,-0.25858 1.21902,-0.63092 0.46194,-1.25924 -0.27951,-0.23197 -0.41972,-0.65234 -0.31158,-0.93415 0.12878,-0.33558 0.33456,-0.39834 0.59639,-0.18187 0.46729,0.38632 2.34005,0.10331 2.34005,-0.35362 0,-0.17141 0.22115,-0.31165 0.49143,-0.31165 0.27028,0 0.57517,-0.21826 0.67754,-0.48502 0.10236,-0.26676 0.63528,-0.57843 1.18427,-0.69261 0.54899,-0.11418 1.51409,-0.31081 2.14468,-0.43697 0.76017,-0.15208 1.14653,-0.43382 1.14653,-0.83609 0,-0.88908 0.35554,-1.10043 1.142593,-0.67922 0.46156,0.24702 0.81542,0.25467 1.04746,0.0226 0.23204,-0.23204 0.10006,-0.42988 -0.39065,-0.58562 -0.95455,-0.30297 -0.91964,-0.82001 0.14317,-2.1207 0.65918,-0.80672 0.95549,-0.95445 1.27451,-0.63544 0.60367,0.60368 2.22247,-0.31889 2.73732,-1.56003 0.38458,-0.9271 1.70614,-1.68263 4.18796,-2.39423 0.43656,-0.12517 0.79375,-0.43062 0.79375,-0.67878 0,-1.00394 1.13236,-2.62133 2.12232,-3.03138 0.57897,-0.23983 1.05268,-0.57554 1.05268,-0.74603 0,-0.17049 0.23812,-0.30998 0.52917,-0.30998 0.29104,0 0.52916,-0.1619 0.52916,-0.35978 0,-0.19789 0.4163,-1.01925 0.92511,-1.82526 0.80916,-1.28178 0.85771,-1.51475 0.38743,-1.85863 -0.80598,-0.58935 -0.36138,-2.28304 0.70582,-2.68879 0.47725,-0.18145 1.03702,-0.77842 1.24393,-1.32659 0.26549,-0.70336 0.79701,-1.1436 1.80608,-1.4959 0.95997,-0.33515 1.74947,-0.96295 2.40237,-1.91033 1.07684,-1.56252 1.30038,-2.99861 0.46676,-2.99861 -0.34942,0 -0.52916,-0.34951 -0.52916,-1.02893 0,-0.56591 -0.19844,-1.12008 -0.44098,-1.23147 -0.24253,-0.11139 -0.12347,-0.13107 0.26459,-0.0437 0.90897,0.20458 2.08975,-0.67804 1.82613,-1.36502 -0.12611,-0.32866 0.057,-0.61046 0.48492,-0.74628 0.37816,-0.12002 0.68756,-0.52503 0.68756,-0.90001 0,-0.51144 0.24666,-0.68178 0.98726,-0.68178 0.67188,0 1.45642,-0.4508 2.45582,-1.41111 0.8077,-0.77611 1.6882,-1.41111 1.95667,-1.41111 0.26846,0 0.77545,-0.3175 1.12664,-0.70556 0.74765,-0.82615 1.68725,-0.90818 2.38703,-0.2084 0.61747,0.61747 1.5045,0.14718 1.20322,-0.63794 -0.11973,-0.31202 -0.61636,-0.56477 -1.10974,-0.56477 -0.57363,0 -0.89301,-0.1967 -0.89301,-0.54999 0,-0.30249 0.15408,-0.45475 0.34241,-0.33836 0.18833,0.1164 0.82333,-0.0371 1.41111,-0.34101 0.58779,-0.30395 1.0687,-0.40833 1.0687,-0.23195 0,0.17638 0.3175,0.40372 0.70555,0.5052 0.82884,0.21674 0.95864,1.30889 0.15557,1.30889 -0.30249,0 -0.45187,0.15875 -0.33195,0.35278 0.40639,0.65755 1.06057,0.35709 1.5296,-0.70253 0.39876,-0.90085 0.38924,-1.13319 -0.0651,-1.5875 -0.29271,-0.29271 -0.8513,-0.53219 -1.24133,-0.53219 -0.56785,0 -0.75562,-0.30993 -0.94241,-1.55558 -0.17583,-1.17251 -0.41518,-1.60315 -0.97194,-1.74875 -0.69963,-0.18295 -0.70695,-0.22822 -0.13845,-0.8564 0.41123,-0.4544 0.535,-0.98935 0.39308,-1.69896 -0.15427,-0.77133 -0.0242,-1.20125 0.50948,-1.68423 0.697,-0.63077 0.74992,-0.62797 1.93186,0.10251 0.66837,0.41307 1.48323,1.16006 1.81078,1.65997 0.32756,0.49993 1.47194,1.31017 2.54308,1.80055 2.33197,1.06761 4.19715,0.94728 7.0721,-0.45624 1.0161,-0.49605 1.9903,-0.81362 2.16489,-0.70572 0.17459,0.10791 0.51361,-0.0402 0.75338,-0.32909 0.4753,-0.57271 1.76067,-0.72176 1.76067,-0.20418 0,0.52772 -1.86178,3.20667 -2.22851,3.20667 -0.18661,0 -1.07304,0.45148 -1.96983,1.00328 -0.8968,0.55181 -2.20225,1.11054 -2.901,1.24163 -0.69876,0.13108 -1.55499,0.55273 -1.90274,0.93699 -0.34775,0.38426 -0.90796,0.69866 -1.24491,0.69866 -0.35927,0 -0.70418,0.36475 -0.83399,0.88194 -0.12174,0.48507 -0.36447,0.88195 -0.53938,0.88195 -0.17492,0 -0.42263,0.47625 -0.55048,1.05833 -0.29668,1.35082 -0.81668,1.35082 -1.28758,0 -0.20292,-0.58208 -0.48235,-1.05833 -0.62098,-1.05833 -0.44953,0 -0.22825,2.93326 0.23287,3.08689 0.24253,0.0808 0.44097,0.36998 0.44097,0.64264 0,0.67701 -1.10352,1.91491 -1.70704,1.91491 -0.31884,0 -0.42676,0.24917 -0.30672,0.7082 0.12038,0.46033 -0.0641,0.88284 -0.52717,1.20717 -0.6503,0.45549 -0.69139,0.73961 -0.47152,3.26055 0.13688,1.56938 0.0942,3.14232 -0.0988,3.64352 -0.2777,0.72105 -0.17338,1.10308 0.5718,2.09402 0.59582,0.79232 0.76577,1.26064 0.49074,1.35232 -0.2314,0.0771 -0.42072,0.35156 -0.42072,0.60985 0,0.52206 -2.93852,2.28744 -3.8368,2.30503 -1.37717,0.027 -2.75488,2.25226 -1.65558,2.6741 0.76069,0.2919 0.69368,0.93797 -0.15207,1.46615 -0.38805,0.24234 -0.70555,0.65804 -0.70555,0.92377 0,0.26574 -0.31813,0.70095 -0.70697,0.96715 -0.63673,0.43592 -0.66548,0.61675 -0.28946,1.82037 0.24948,0.79853 0.59111,1.26974 0.84886,1.17083 0.73319,-0.28135 0.88445,0.22486 0.27005,0.90376 -0.32154,0.35529 -0.52032,0.66409 -0.44174,0.68621 0.0786,0.0221 0.61721,0.0949 1.19696,0.16171 0.57975,0.0668 1.4001,0.30666 1.82301,0.53299 0.65892,0.35265 1.03136,0.24146 2.60344,-0.77721 1.00899,-0.6538 1.97469,-1.55741 2.14601,-2.00802 0.23593,-0.62054 0.48669,-0.76368 1.03371,-0.59006 0.76958,0.24425 1.74668,-0.34133 1.74668,-1.04681 0,-0.23418 -0.34112,-0.41318 -0.75804,-0.39778 -1.00815,0.0373 -1.28424,-0.84718 -0.34142,-1.09373 0.40631,-0.10626 0.65179,-0.33389 0.54551,-0.50586 -0.10628,-0.17197 0.13363,-0.31267 0.53313,-0.31267 0.39951,0 0.72736,0.19843 0.72855,0.44097 0.001,0.24253 0.24508,-0.0248 0.54197,-0.59417 0.29689,-0.56932 0.46408,-1.23244 0.37154,-1.47359 -0.24891,-0.64865 0.57881,-2.60655 1.10194,-2.60655 0.53622,0 0.60046,-0.57205 0.0991,-0.88194 -0.51961,-0.32114 -0.43788,-0.67861 0.39817,-1.74148 0.53396,-0.67882 0.86016,-0.84547 1.12889,-0.57674 0.5837,0.58371 0.89483,0.44871 0.69827,-0.30296 -0.11562,-0.44211 0.0815,-0.84302 0.56219,-1.14319 0.83501,-0.52147 0.95406,-1.33215 0.29928,-2.03783 -0.35981,-0.38779 -0.32834,-0.43565 0.17101,-0.26008 0.62262,0.21891 1.53667,-0.89988 1.1915,-1.45838 -0.2897,-0.46874 0.38582,-1.22816 0.84179,-0.94635 0.26768,0.16543 0.35948,0.70778 0.24217,1.4307 -0.25543,1.57401 0.0398,2.52564 0.84934,2.73733 0.89007,0.23276 0.86908,1.52335 -0.0326,2.00592 -0.8769,0.46931 -0.88234,0.76185 -0.0336,1.80994 0.64229,0.7932 0.70182,0.8027 1.35069,0.21547 0.99211,-0.89784 1.50518,-0.75358 1.50518,0.42322 0,0.57063 0.17258,1.14417 0.38351,1.27453 0.21093,0.13037 0.30533,0.536 0.20977,0.90142 -0.0956,0.36542 0.12739,1.45689 0.49543,2.4255 0.36805,0.96862 0.69626,2.47735 0.72937,3.35274 0.0331,0.8754 0.17337,1.59163 0.31169,1.59163 0.13831,0 0.34566,0.47087 0.46076,1.04638 0.2748,1.37402 2.77977,3.97556 3.54517,3.68185 0.42948,-0.16481 0.56708,3.5e-4 0.56708,0.68126 0,0.49438 0.18328,1.01214 0.40729,1.15058 0.25234,0.15596 0.31152,0.0968 0.15556,-0.15556 -0.14915,-0.24134 -0.0276,-0.40729 0.29827,-0.40729 0.3148,0 0.54999,0.30171 0.54999,0.70556 0,0.45061 0.23519,0.70555 0.65088,0.70555 0.709,0 1.5551,0.82812 1.98241,1.94028 0.17204,0.44778 0.33126,0.54444 0.43579,0.26458 0.22989,-0.61545 0.81148,-0.55224 0.81148,0.0882 0,0.32199 0.32838,0.52916 0.83875,0.52916 0.92812,0 1.48831,0.52372 1.68305,1.57348 0.0844,0.45464 0.52526,0.77271 1.28713,0.92854 0.63737,0.13035 1.47113,0.51962 1.85281,0.86503 0.64564,0.58429 0.65368,0.67255 0.11542,1.26732 -0.89899,0.99337 -1.86009,1.15248 -2.64898,0.43854 -0.92823,-0.84003 -1.35264,-0.19492 -1.10186,1.67482 0.15618,1.16441 0.0852,1.36806 -0.48057,1.37904 -0.82473,0.016 -2.60409,2.73406 -2.60409,3.97787 0,0.55504 -0.24192,0.97738 -0.63051,1.10071 -0.81893,0.25992 -1.00429,2.15555 -0.23948,2.44904 0.46978,0.18027 0.43959,0.35418 -0.21529,1.23994 -0.82281,1.11291 -0.67749,1.8029 0.37971,1.8029 0.81286,0 0.92645,-0.17298 1.25153,-1.90577 0.18549,-0.98877 0.14523,-1.302 -0.14437,-1.12302 -0.22088,0.13651 -0.4016,0.0631 -0.4016,-0.16314 0,-0.23015 0.2458,-0.31702 0.55802,-0.19721 0.30691,0.11778 0.70378,0.21414 0.88194,0.21414 0.17816,0 0.32393,0.23812 0.32393,0.52916 0,0.8016 0.63943,0.64083 2.12225,-0.53359 1.43359,-1.13542 4.0437,-5.74982 3.72384,-6.58336 -0.25687,-0.66939 0.39791,-2.23136 0.93615,-2.23317 0.59424,-0.002 0.79803,-3.42318 0.2437,-4.09112 -0.61872,-0.74551 0.12792,-1.42039 2.09293,-1.89179 1.88921,-0.45322 3.21242,-0.12931 3.98652,0.97587 0.26212,0.37423 1.0322,0.8005 1.71129,0.94726 0.67909,0.14676 1.79122,0.5484 2.47141,0.89253 0.68019,0.34413 1.87082,0.80158 2.64584,1.01656 0.8955,0.2484 2.1546,1.10325 3.45433,2.34528 1.99637,1.90773 2.0433,1.99616 1.96543,3.70288 -0.0651,1.42691 -0.19795,1.74849 -0.72229,1.74849 -0.39681,0 -0.64251,-0.25719 -0.64251,-0.67253 0,-0.46909 -0.18843,-0.62326 -0.62287,-0.50965 -0.44359,0.116 -0.91657,-0.30176 -1.64325,-1.45141 -0.57603,-0.91129 -1.38018,-1.70459 -1.84658,-1.82165 -0.50214,-0.12603 -0.82619,-0.4691 -0.82619,-0.87468 0,-0.89107 -0.72259,-0.85478 -0.9587,0.0481 -0.13617,0.5207 -0.3743,0.65603 -0.87483,0.49717 -0.43211,-0.13714 -0.84547,-0.002 -1.1121,0.36209 -0.59063,0.80773 -1.64048,0.32997 -1.64048,-0.74654 0,-1.13522 -1.5513,-2.6721 -2.55112,-2.52741 -0.55905,0.0809 -0.88526,0.50125 -1.18182,1.52285 -0.22529,0.77612 -1.06504,2.39559 -1.86612,3.59883 -0.80107,1.20325 -1.4565,2.28326 -1.4565,2.40003 0,1.10114 -8.55964,10.59001 -12.7,14.07869 -7.59279,6.39772 -26.99039,15.57695 -40.80048,19.30739 -4.12709,1.11483 -4.29699,1.1305 -13.75984,1.26981 -8.531993,0.1256 -10.063463,0.0596 -13.985653,-0.60276 -5.805917,-0.98047 -10.416637,-2.11824 -15.618117,-3.85405 -5.88794,-1.96488 -7.24372,-2.58949 -10.97124,-5.05455 -2.819798,-1.86476 -3.394638,-2.42061 -4.342478,-4.19893 -0.60085,-1.12732 -1.24833,-2.14599 -1.43883,-2.26373 -0.48216,-0.29799 -2.44725,-4.25469 -2.44725,-4.92752 0,-0.3034 -0.22868,-0.90324 -0.50817,-1.33298 -0.2795,-0.42973 -0.98273,-2.21009 -1.56274,-3.95634 -1.1408,-3.43465 -1.71758,-4.04216 -3.84685,-4.05174 -0.93663,-0.004 -1.22611,0.17839 -1.52969,0.96494 l -0.37443,0.97014 -1.02795,-1.2214 c -0.56537,-0.67177 -1.02794,-1.34645 -1.02794,-1.49931 0,-0.15284 -0.45484,-0.2779 -1.01076,-0.2779 -0.55592,0 -1.4144,-0.3175 -1.90773,-0.70556 -1.20528,-0.94808 -1.52547,-0.8931 -2.07878,0.35692 -0.25867,0.58436 -0.75732,1.15357 -1.10811,1.26491 -0.3508,0.11134 -0.7753,0.56402 -0.94332,1.00597 -0.37334,0.98194 -1.72501,1.42964 -2.01723,0.66814 -0.11183,-0.29142 0.14714,-1.2316 0.57549,-2.08928 0.64336,-1.28821 0.95089,-1.55944 1.76815,-1.55944 h 0.98932 l -0.7193,-1.4993 c -0.9508,-1.98183 -1.62504,-2.73403 -2.45068,-2.73403 -1.03648,0 -3.71645,2.38138 -4.5175,4.01419 -1.31491,2.68024 -1.78476,3.39414 -2.2338,3.39414 -0.75882,0 -3.38889,3.24457 -3.39343,4.18629 -0.001,0.31973 0.23531,0.40885 0.70323,0.26458 0.38806,-0.11964 1.00775,-0.31142 1.37711,-0.42617 0.47906,-0.14884 0.73866,0.003 0.90571,0.52916 0.1288,0.4058 0.45601,0.73781 0.72715,0.73781 0.8184,0 1.29697,-1.34255 1.03381,-2.90016 -0.22649,-1.34059 -0.19285,-1.42321 0.50526,-1.24065 0.50218,0.13132 0.90881,-0.0341 1.23761,-0.50355 0.6717,-0.95898 0.85763,-0.4838 0.782,1.99853 l -0.0645,2.11666 -1.3118,0.32681 c -0.7215,0.17974 -1.31181,0.46824 -1.31181,0.64113 0,0.17288 -0.32864,0.21002 -0.73031,0.0825 -0.55294,-0.1755 -0.77713,-0.0527 -0.92309,0.50539 -0.1907,0.72924 -1.16882,1.05774 -1.16882,0.39254 0,-0.18955 -0.40672,-0.61114 -0.90382,-0.93685 -0.8451,-0.55373 -0.98417,-0.55389 -2.14047,-0.002 -0.94947,0.45277 -1.21063,0.77273 -1.12465,1.37783 0.15436,1.08621 1.675,1.31073 1.94276,0.28685 0.18718,-0.71579 1.16785,-1.05662 1.16785,-0.40589 0,0.18017 0.24946,0.57705 0.55436,0.88195 1.01714,1.01713 3.5603,0.45186 2.68921,-0.59774 -0.4515,-0.54404 -0.22504,-0.96459 0.51939,-0.96459 0.2587,0 0.47037,0.23813 0.47037,0.52917 0,0.63949 0.91902,0.70709 1.1991,0.0882 0.10976,-0.24253 0.16106,-0.12347 0.11399,0.26459 -0.0519,0.42764 -0.39681,0.74996 -0.87572,0.81828 -0.43458,0.062 -0.79015,0.31214 -0.79015,0.55587 0,0.24373 -0.39687,0.81598 -0.88194,1.27168 -0.48507,0.4557 -0.88195,1.21759 -0.88195,1.69309 0,0.76501 0.1173,0.84109 1.0188,0.66079 0.74531,-0.14906 1.1875,-0.0174 1.64725,0.49068 0.60371,0.66709 0.60179,0.71483 -0.0487,1.2122 -0.65986,0.50456 -0.65689,0.52345 0.11664,0.74109 0.43656,0.12283 0.79375,0.35252 0.79375,0.51043 0,0.1579 0.27781,0.35533 0.61736,0.43874 0.33954,0.0834 0.13231,0.093 -0.46053,0.0214 -0.86627,-0.10465 -1.22988,0.0754 -1.85208,0.91694 -0.91241,1.2341 -1.0369,2.31036 -0.23149,2.00129 0.35084,-0.13463 0.6421,0.0604 0.82385,0.55174 0.18654,0.50428 0.36704,0.621 0.53644,0.3469 0.49406,-0.79939 1.20129,-0.39835 1.76001,0.99802 0.31053,0.77611 0.73534,1.41111 0.94402,1.41111 0.21091,0 0.28584,0.29479 0.16873,0.66378 -0.13296,0.41892 -0.0116,0.74017 0.32901,0.87087 0.33072,0.12691 0.53968,0.01 0.53968,-0.30194 0,-0.59462 1.97745,-1.71316 2.4798,-1.40269 0.18833,0.11639 0.34242,0.51975 0.34242,0.89636 0,0.3766 0.23812,0.68473 0.52916,0.68473 0.29105,0 0.52917,-0.24749 0.52917,-0.54998 0,-0.3025 0.15875,-0.45188 0.35278,-0.33196 0.19403,0.11991 0.35278,0.60709 0.35278,1.0826 0,0.47552 0.30443,1.12525 0.67653,1.44384 0.66611,0.57035 0.66558,0.59406 -0.0342,1.54062 -0.39092,0.52874 -0.6517,1.25871 -0.57951,1.62214 0.13111,0.66011 0.60551,0.72355 3.11221,0.41617 0.71444,-0.0876 0.90067,0.0594 0.98051,0.7738 0.0949,0.84892 0.0785,0.85649 -0.43733,0.20214 -0.58049,-0.73638 -1.10519,-0.55068 -0.78699,0.27854 0.10787,0.28111 0.68129,0.61767 1.27426,0.74791 1.25433,0.2755 1.68243,0.78575 1.12604,1.34214 -0.7142,0.71419 -0.41097,0.95706 1.19489,0.95706 1.17592,0 1.58749,0.13719 1.58749,0.52916 0.915851,1.14487 4.527776,0.32203 4.58612,-1.06385 0,-0.7667 1.4958,-2.19697 2.54352,-2.43211 0.71732,-0.16099 1.04454,-0.0492 1.31051,0.44779 0.19496,0.36429 0.26709,0.74973 0.16028,0.85654 -0.1068,0.10681 0.13834,0.37215 0.54476,0.58967 0.54079,0.28942 0.68421,0.61358 0.53481,1.20882 15.437445,15.33743 -42.173668,6.46084 -56.622486,4.83183 -26.534252,-2.99155 -30.294682,-11.65912 -36.145834,-13.78764 z m 64.01223,8.40461 c 1.47337,-1.86165 1.02429,-3.4667 -1.12042,-4.00447 -0.82188,-0.20608 -0.97014,-0.13276 -0.97014,0.47973 0,0.39764 0.15875,0.82109 0.35277,0.94101 0.19403,0.11991 0.35278,1.00241 0.35278,1.96109 -0.01761,2.17442 0.343332,1.92723 1.38501,0.62264 z m 12.7261,0.76766 c 0,-0.19403 -0.16812,-0.35278 -0.3736,-0.35278 -0.20547,0 -0.27548,0.15875 -0.15556,0.35278 0.279043,0.39609 0.437239,0.40374 0.52916,0 z m -12.30165,-7.50388 c -0.60155,-0.60155 -0.84411,-0.0701 -0.55538,1.21684 l 0.2629,1.17176 0.33953,-1.00101 c 0.23165,-0.68295 0.2167,-1.12384 -0.0471,-1.38759 z m 82.328038,0.80909 c 1.52563,-1.07656 1.67047,-1.53159 0.54373,-1.70815 -0.75166,-0.11778 -1.32059,-1.49421 -0.89934,-2.1758 0.13198,-0.21356 0.0354,-0.63482 -0.21471,-0.93614 -0.3777,-0.45509 -0.35297,-0.60477 0.14602,-0.88402 0.89847,-0.50281 0.73475,-1.12408 -0.62143,-2.35818 -1.36298,-1.24028 -2.6808,-1.3622 -3.61122,-0.33409 -0.31222,0.345 -1.03653,0.62728 -1.60958,0.62728 -0.95954,0 -1.02272,-0.0764 -0.79929,-0.96661 0.2915,-1.16147 0.77513,-1.52595 1.95055,-1.47003 1.92773,0.0917 2.39091,-0.0472 2.58094,-0.77386 0.10671,-0.40805 0.36298,-0.63648 0.57031,-0.50835 0.20709,0.12799 0.37652,0.055 0.37652,-0.16227 0,-0.27567 -0.77259,-0.32754 -2.55764,-0.1717 -1.4067,0.1228 -3.27201,0.25149 -4.14513,0.28596 -1.62196,0.0641 -1.818,0.32579 -1.25848,1.68024 0.43756,1.05924 -0.87418,1.99844 -3.07566,2.20215 -2.015133,0.18646 -2.051033,0.17353 -2.822233,-1.0173 -0.42962,-0.66339 -1.05106,-1.20813 -1.38097,-1.21053 -0.3299,-0.002 -0.73751,-0.25039 -0.90578,-0.55108 -0.16828,-0.30069 -0.81488,-0.61112 -1.4369,-0.68984 -1.41412,-0.17897 -1.9142,-0.47853 -1.70574,-1.02177 0.45477,-1.1851 -1.9872,-3.43707 -3.89085,-3.58812 -0.86957,-0.069 -1.57182,-0.44918 -2.34798,-1.27114 -1.273357,-1.3485 -4.823577,-3.81853 -5.488437,-3.81853 -0.24689,0 -0.89512,-0.31774 -1.44051,-0.70609 -0.8617,-0.61359 -1.60176,-0.7122 -5.64898,-0.75264 -5.27673,-0.0527 -5.2724,-0.0549 -5.28097,2.60526 -0.004,1.25672 0.1269,1.67569 0.52376,1.67569 0.63761,0 0.67441,0.78298 0.11015,2.34342 -0.35074,0.96995 -0.32739,1.26148 0.14329,1.78893 0.32828,0.36788 0.66795,1.65793 0.81613,3.09959 0.1396,1.3582 0.45652,2.86632 0.70427,3.35139 1.03619,2.02878 4.58754,3.66041 12.33727,5.66822 4.516087,1.17003 5.978557,1.39285 9.978237,1.52027 4.27656,0.13624 5.832743,-0.0374 7.482633,-0.83475 0.30307,-0.14648 1.12488,0.0612 1.93145,0.48801 4.11954,2.18011 8.35619,2.40249 10.94657,0.57458 z m -76.223848,0.73615 c 0.17062,-0.27606 -1.22802,-1.4497 -1.72763,-1.4497 -0.42757,0 -0.14583,0.83678 0.42857,1.27281 0.73505,0.55798 1.03804,0.59924 1.29906,0.17689 z m -4.38587,-2.86081 c 0,-0.19403 -0.15875,-0.35278 -0.35278,-0.35278 -0.19403,0 -0.35278,0.15875 -0.35278,0.35278 0,0.19403 0.15875,0.35278 0.35278,0.35278 0.19403,0 0.35278,-0.15875 0.35278,-0.35278 z m -1.85993,-3.05687 c 0.0742,-0.22607 -0.21002,-0.5205 -0.63156,-0.65429 -0.54345,-0.17249 -0.9853,-0.0211 -1.51872,0.52018 l -0.75229,0.76345 1.38384,-0.10915 c 0.76112,-0.06 1.44454,-0.29412 1.51873,-0.52019 z m 3.27104,-0.66812 c 0,-0.30249 -0.15875,-0.45187 -0.35278,-0.33195 -0.19402,0.11991 -0.35277,0.36741 -0.35277,0.54998 0,0.18258 0.15875,0.33196 0.35277,0.33196 0.19403,0 0.35278,-0.24749 0.35278,-0.54999 z m -4.35644,-2.64527 c 0.77779,-0.29571 0.87456,-0.4389 0.46688,-0.69086 -0.31053,-0.19192 -0.6482,-0.18389 -0.85235,0.0203 -0.18595,0.18595 -0.62384,0.33809 -0.97309,0.33809 -0.34925,0 -0.635,0.15875 -0.635,0.35278 0,0.45623 0.76062,0.44851 1.99356,-0.0202 z m 84.789778,-2.91955 c 0,-0.25871 -0.10446,-0.57483 -0.23213,-0.7025 -0.31903,-0.31903 -1.21797,0.4716 -0.97789,0.86006 0.3006,0.48639 1.21002,0.36797 1.21002,-0.15756 z m -91.722228,-3.47789 c 0,-0.55715 -1.12322,-0.75065 -1.44131,-0.24829 -0.62517,0.98733 -0.38996,1.3899 0.55937,0.95736 0.48507,-0.22102 0.88194,-0.54009 0.88194,-0.70907 z m -3.88055,0.42048 c 0,-0.19403 -0.2475,-0.35278 -0.54999,-0.35278 -0.30249,0 -0.45187,0.15875 -0.33196,0.35278 0.11992,0.19403 0.36741,0.35278 0.54999,0.35278 0.18258,0 0.33196,-0.15875 0.33196,-0.35278 z m 7.07956,-1.80875 c 0.44193,-0.82575 -0.0844,-1.45632 -0.94108,-1.12757 -0.34668,0.13303 -0.36147,0.37185 -0.0636,1.02569 0.47284,1.03778 0.50217,1.04076 1.00464,0.10188 z M 162.39939,259.06409 c 0,-0.11869 -0.47811,0.12464 -1.06248,0.54075 -0.58436,0.4161 -0.9615,0.91994 -0.83808,1.11964 0.2072,0.33526 1.90056,-1.14411 1.90056,-1.66039 z M 28.343842,254.26858 c 0,-0.19403 -0.15875,-0.25467 -0.35278,-0.13475 -0.19403,0.11992 -0.35278,0.37678 -0.35278,0.5708 0,0.19403 0.15875,0.25467 0.35278,0.13475 0.19403,-0.11991 0.35278,-0.37677 0.35278,-0.5708 z M 132.3375,239.1611 c 0.25909,-0.0523 -0.6956,-1.43144 -0.99093,-1.43144 -0.41756,0 -1.75551,1.12237 -1.75551,1.47265 0,0.19464 1.70572,0.16905 2.74644,-0.0412 z m 1.83967,-0.0203 c 0,-0.19402 -0.16812,-0.35277 -0.3736,-0.35277 -0.20548,0 -0.27548,0.15875 -0.15557,0.35277 0.11992,0.19403 0.28804,0.35278 0.3736,0.35278 0.0856,0 0.15557,-0.15875 0.15557,-0.35278 z m -3.01368,-11.97006 c 0.11163,-0.18063 0.0416,-0.42812 -0.15557,-0.54999 -0.19719,-0.12187 -0.35853,0.0259 -0.35853,0.3284 0,0.61966 0.21169,0.7109 0.5141,0.22159 z m 13.59701,-2.12023 c 0,-0.41623 -0.68804,-0.86148 -0.94074,-0.60878 -0.2527,0.2527 0.19256,0.94074 0.60879,0.94074 0.18257,0 0.33195,-0.14938 0.33195,-0.33196 z m -10.63386,-3.15712 c 0.33366,-0.21142 0.36037,-0.37637 0.0882,-0.54459 -0.44747,-0.27655 -1.09599,0.0351 -1.09599,0.52671 0,0.4102 0.37806,0.4169 1.0078,0.0179 z m 3.12999,-1.31017 c -0.11723,-0.11722 -0.4215,-0.12975 -0.67616,-0.0278 -0.28142,0.11261 -0.19783,0.1962 0.21314,0.21313 0.37188,0.0153 0.58024,-0.0681 0.46302,-0.18529 z m -5.90168,-16.01464 c 0,-0.19403 -0.15875,-0.35278 -0.35278,-0.35278 -0.19403,0 -0.35278,0.15875 -0.35278,0.35278 0,0.19403 0.15875,0.35278 0.35278,0.35278 0.19403,0 0.35278,-0.15875 0.35278,-0.35278 z m -63.85278,81.13886 c 0,-0.19403 0.23813,-0.35278 0.52917,-0.35278 0.29104,0 0.52916,0.15875 0.52916,0.35278 0,0.19403 -0.23812,0.35278 -0.52916,0.35278 -0.29104,0 -0.52917,-0.15875 -0.52917,-0.35278 z m -10.891928,-1.35313 c -0.51368,-0.93202 -0.41922,-1.21335 0.26533,-0.79028 0.25601,0.15823 0.40321,0.58616 0.32713,0.95096 -0.12543,0.60141 -0.1807,0.58643 -0.59246,-0.16068 z m 7.00116,-0.24524 c -0.45008,-0.47909 -1.08932,-0.87107 -1.42052,-0.87107 -0.3312,0 -1.02599,-0.55563 -1.54396,-1.23473 -0.51797,-0.67909 -1.17397,-1.23472 -1.45777,-1.23472 -0.2838,0 -0.84101,-0.19844 -1.23825,-0.44097 -0.59456,-0.36301 -0.79767,-0.34742 -1.14879,0.0882 -0.5607,0.69563 -2.01668,1.51198 -2.26095,1.26769 -0.10577,-0.10576 -0.0339,-0.39457 0.15979,-0.6418 0.63213,-0.807 0.75074,-1.9971 0.24119,-2.42 -0.27101,-0.22492 -0.49275,-0.59235 -0.49275,-0.81651 0,-0.22417 -0.31315,-0.6757 -0.69589,-1.00341 -0.38274,-0.32771 -0.78931,-1.03768 -0.90349,-1.57771 -0.33528,-1.58568 -1.18118,-3.28108 -1.74502,-3.49745 -0.40921,-0.15702 -0.43991,-0.35646 -0.1409,-0.91517 0.41133,-0.76859 -0.10342,-2.19961 -1.06116,-2.95001 -0.26923,-0.21095 -0.41405,-0.60782 -0.32181,-0.88194 0.0922,-0.27413 -0.0822,-0.68251 -0.38775,-0.90752 -0.49977,-0.3681 -0.48855,-0.48303 0.11191,-1.14653 0.36704,-0.40558 0.97746,-0.73741 1.35648,-0.73741 0.55429,0 0.64687,0.16833 0.47319,0.86032 -0.11876,0.47318 -0.0566,0.9588 0.13815,1.07915 0.19474,0.12036 0.35407,0.59697 0.35407,1.05914 0,0.46216 0.17161,0.94637 0.38136,1.076 0.20975,0.12963 0.2861,0.61525 0.16967,1.07915 -0.16512,0.65789 -0.0705,0.84346 0.43003,0.84346 0.78616,0 1.48838,0.65798 1.48838,1.3946 0,1.20636 5.7282,7.71882 8.23266,9.35981 0.51676,0.33859 0.93957,0.78082 0.93957,0.98272 0,0.20191 0.39751,0.88827 0.88335,1.52524 1.05427,1.38222 0.62714,1.90468 -0.54079,0.66148 z m -6.69256,-1.92941 c 0,-0.19402 0.16812,-0.35277 0.3736,-0.35277 0.20547,0 0.27548,0.15875 0.15556,0.35277 -0.11991,0.19403 -0.28803,0.35278 -0.3736,0.35278 -0.0856,0 -0.15556,-0.15875 -0.15556,-0.35278 z m -19.40278,-1.21719 c 0,-0.2814 0.26748,-0.66133 0.59441,-0.84429 0.5567,-0.31154 0.55618,-0.391 -0.008,-1.25225 -0.33138,-0.50578 -0.84065,-0.9196 -1.1317,-0.9196 -0.45738,0 -0.45077,-0.11964 0.0487,-0.88194 0.65128,-0.99398 1.20228,-1.15059 1.20228,-0.34171 0,0.29713 0.23813,0.63161 0.52917,0.7433 0.69935,0.26837 0.68728,2.21429 -0.02,3.22408 -0.62672,0.89476 -1.21472,1.02663 -1.21472,0.27241 z m -0.35278,-6.64975 c 0,-0.50834 0.68925,-1.30528 1.12889,-1.30528 0.52424,0 0.28687,1.33384 -0.2758,1.54976 -0.77671,0.29805 -0.85309,0.27616 -0.85309,-0.24448 z m -1.28937,-8.19966 c -0.1149,-0.29941 -0.12048,-0.63281 -0.0124,-0.74088 0.30893,-0.30893 0.94899,0.21507 0.94899,0.77692 0,0.67692 -0.67294,0.65103 -0.93659,-0.036 z m 1.31722,-2.13085 c 0.0169,-0.41097 0.10052,-0.49456 0.21314,-0.21314 0.1019,0.25466 0.0894,0.55894 -0.0278,0.67616 -0.11723,0.11723 -0.20061,-0.0911 -0.18529,-0.46302 z m 4.44412,-0.64115 c -0.1143,-0.29787 -0.067,-0.62863 0.10517,-0.73502 0.46128,-0.28508 0.8524,0.52686 0.44841,0.93085 -0.22582,0.22582 -0.41784,0.15789 -0.55358,-0.19583 z m 7.1697,-0.34459 c 0,-1.0123 0.9244,-1.90574 1.43917,-1.39097 0.48967,0.48967 -0.21367,2.22972 -0.90128,2.22972 -0.33118,0 -0.53789,-0.32233 -0.53789,-0.83875 z m -67.02778,-2.86542 c 0,-0.52589 0.1519,-0.8297 0.35278,-0.70555 0.19402,0.11991 0.35277,0.43741 0.35277,0.70555 0,0.26814 -0.15875,0.58564 -0.35277,0.70556 -0.20088,0.12414 -0.35278,-0.17967 -0.35278,-0.70556 z m 61.03055,-0.90276 c 0,-0.20548 0.15875,-0.27549 0.35278,-0.15557 0.19403,0.11991 0.35278,0.28803 0.35278,0.3736 0,0.0856 -0.15875,0.15557 -0.35278,0.15557 -0.19403,0 -0.35278,-0.16812 -0.35278,-0.3736 z m 148.194518,-1.2433 c 0.0169,-0.41097 0.10052,-0.49456 0.21314,-0.21314 0.10191,0.25466 0.0894,0.55893 -0.0278,0.67616 -0.11722,0.11722 -0.2006,-0.0911 -0.18528,-0.46302 z M 37.868842,256.2505 c 0,-0.29105 0.15875,-0.52917 0.35277,-0.52917 0.19403,0 0.35278,0.23812 0.35278,0.52917 0,0.29104 -0.15875,0.52916 -0.35278,0.52916 -0.19402,0 -0.35277,-0.23812 -0.35277,-0.52916 z m 153.297008,-0.50479 c -0.11163,-0.18063 -0.0416,-0.42812 0.15557,-0.54999 0.19719,-0.12187 0.35853,0.0259 0.35853,0.3284 0,0.61966 -0.21169,0.7109 -0.5141,0.22159 z m -209.467718,-2.0519 c -0.59942,-1.20156 -0.50174,-1.50026 0.49061,-1.50026 0.68062,0 0.80234,0.71055 0.32893,1.92004 -0.2417,0.61751 -0.3228,0.57597 -0.81954,-0.41978 z m 158.123478,-26.5683 c 0,-0.20548 0.15875,-0.27549 0.35278,-0.15557 0.19403,0.11992 0.35278,0.28804 0.35278,0.3736 0,0.0856 -0.15875,0.15557 -0.35278,0.15557 -0.19403,0 -0.35278,-0.16812 -0.35278,-0.3736 z m -91.193048,-2.42255 c -0.38806,-0.18109 -2.47009,-0.34042 -4.62673,-0.35406 -3.43608,-0.0217 -4.03855,-0.11712 -4.8699,-0.77106 -0.60768,-0.478 -0.91012,-1.01696 -0.84132,-1.4993 0.0945,-0.6629 0.36953,-0.76557 2.29722,-0.85768 1.20441,-0.0575 3.50628,0.15456 5.11528,0.47135 1.609,0.3168 4.87155,0.68848 7.25012,0.82595 3.36101,0.19424 4.45817,0.38343 4.92377,0.84903 0.41787,0.41787 0.48721,0.71099 0.22922,0.96898 -0.48225,0.48225 -8.56035,0.79488 -9.47766,0.36679 z m 103.540278,-4.96497 c 0,-0.38805 0.15875,-0.70555 0.35277,-0.70555 0.19403,0 0.35278,0.3175 0.35278,0.70555 0,0.38806 -0.15875,0.70556 -0.35278,0.70556 -0.19402,0 -0.35277,-0.3175 -0.35277,-0.70556 z M 33.459112,207.87536 c -0.58208,-0.24902 -1.77271,-0.47108 -2.64583,-0.49347 -0.87313,-0.0224 -1.89223,-0.16013 -2.26468,-0.3061 -0.66761,-0.26163 0.26215,-0.60707 3.34441,-1.24257 1.00919,-0.20807 10.30886,-0.23407 12.50221,-0.035 0.77612,0.0705 1.78079,-0.0522 2.23261,-0.27249 0.96068,-0.46847 2.17712,-2.79134 2.17712,-4.15737 0,-0.73571 0.20081,-0.98933 0.88724,-1.12055 0.70969,-0.13567 0.92926,-0.002 1.09716,0.66675 0.55099,2.1953 -0.72649,4.58895 -3.09358,5.79655 -1.26505,0.64537 -1.79863,0.68939 -5.71711,0.47168 -3.84939,-0.21387 -4.49345,-0.1644 -5.89153,0.45258 -1.35961,0.6 -1.71132,0.63211 -2.62802,0.23994 z m 99.851178,-10.69077 c -0.24097,-0.3899 0.31553,-0.81091 0.64129,-0.48515 0.33541,0.33541 0.2729,0.81355 -0.10637,0.81355 -0.18257,0 -0.42329,-0.14778 -0.53492,-0.3284 z m 21.99617,-2.93479 c -0.18172,-2.1436 0.67607,-4.30198 2.47505,-6.22779 1.738,-1.86054 2.78185,-1.00164 1.27418,1.04842 -0.48969,0.66584 -1.36801,2.20281 -1.95183,3.41547 -0.99643,2.06973 -1.71195,2.77191 -1.7974,1.7639 z M 51.389472,189.9564 c -2.7934,-0.53087 -5.81181,-1.7946 -7.17063,-3.00214 -1.09272,-0.97106 -0.74552,-0.89997 3.52777,0.72233 2.70212,1.02583 3.38231,1.13992 6.87917,1.15388 6.24286,0.0249 9.00874,-1.01991 8.49632,-3.20951 -0.95411,-4.07694 -2.26675,-7.43791 -3.21095,-8.22153 -0.29002,-0.2407 -0.95804,-0.34913 -1.49388,-0.24249 -0.5331,0.1061 -1.36104,-0.0173 -1.83987,-0.2742 -0.47883,-0.25691 -1.36958,-0.38614 -1.97944,-0.28717 -1.38475,0.22471 -4.16542,-0.94946 -4.7251,-1.99523 -0.3131,-0.58503 -0.28033,-1.17784 0.14622,-2.64512 0.76787,-2.64138 0.71263,-2.99952 -0.72238,-4.68372 -1.61195,-1.89188 -3.00107,-2.22313 -4.88515,-1.1649 -1.75914,0.98806 -2.70984,0.81682 -3.36771,-0.60658 -0.63471,-1.37327 -2.0197,-1.86511 -5.11528,-1.81656 -4.32526,0.0678 -4.78895,0.56714 -3.74356,4.03106 0.59648,1.97646 1.11828,2.86235 2.66263,4.5205 1.05642,1.13426 2.07709,1.96568 2.26816,1.8476 0.49599,-0.30654 2.16416,0.524 2.16416,1.07748 0,0.25542 -0.40094,0.72711 -0.89097,1.04819 -0.59885,0.39238 -0.82547,0.79014 -0.6912,1.21317 0.44173,1.39177 -0.57332,0.9168 -2.70084,-1.2638 -2.23131,-2.28698 -2.75508,-3.26903 -4.41497,-8.278 -0.83721,-2.52639 -0.94614,-2.63731 -2.70323,-2.75287 -2.0755,-0.13649 -3.05607,0.37803 -3.08504,1.61875 -0.0191,0.81729 -0.16187,0.67447 -0.97369,-0.9739 -0.97001,-1.96957 -2.03385,-2.8163 -3.55017,-2.82567 -0.91766,-0.006 -8.85524,-3.89073 -8.85778,-4.33546 -0.002,-0.36321 1.25302,-0.83864 5.32784,-2.01818 1.86401,-0.53958 3.72999,-1.16348 4.14661,-1.38645 1.37369,-0.73518 5.27472,0.84324 5.86118,2.37151 0.31553,0.82227 -0.79835,1.77037 -3.04029,2.58782 -2.84015,1.03558 -3.179,1.53451 -1.56492,2.30421 1.06821,0.50939 1.46511,0.53981 2.44063,0.18706 0.64074,-0.2317 2.21746,-0.42126 3.50383,-0.42126 1.28636,0 3.18009,-0.16925 4.20828,-0.37611 2.92529,-0.58852 3.05641,-0.66855 2.00609,-1.22448 -0.65484,-0.3466 -0.98364,-0.86959 -1.13565,-1.80636 -0.11768,-0.72518 -0.1724,-1.36007 -0.1216,-1.41087 0.0508,-0.0508 2.60699,-0.2682 5.68043,-0.48312 3.99812,-0.27956 6.09347,-0.58996 7.3644,-1.09091 1.87155,-0.73769 3.20283,-0.54275 4.15867,0.60897 0.22422,0.27016 0.83273,0.49121 1.35225,0.49121 0.51952,0 1.14497,0.19844 1.38989,0.44097 0.35666,0.3532 0.51464,0.31809 0.79364,-0.17639 0.25748,-0.45634 0.79839,-0.61736 2.07387,-0.61736 0.94905,0 1.83247,-0.17301 1.96315,-0.38446 0.39755,-0.64324 5.56049,0.58141 5.3302,1.26432 -0.14932,0.44276 -2.09429,0.2356 -2.39992,-0.25562 -0.12383,-0.19902 -0.38328,-0.26412 -0.57657,-0.14466 -0.19328,0.11946 -1.12384,0.23386 -2.06791,0.25422 -2.47334,0.0534 -4.00955,0.59055 -4.00955,1.40209 0,0.8772 1.31421,1.65748 2.64584,1.57091 2.12485,-0.13813 2.29305,-0.18774 2.29305,-0.67631 0,-0.36344 0.45106,-0.48702 1.6757,-0.45912 0.92163,0.021 1.39788,0.0977 1.05833,0.17038 -0.33955,0.0727 -0.61736,0.37853 -0.61736,0.6796 0,0.42926 0.24745,0.49809 1.14653,0.31893 0.63059,-0.12567 1.19944,-0.38363 1.26412,-0.57327 0.0647,-0.18963 0.75635,-0.34479 1.53705,-0.34479 1.116798,0 1.376158,0.11283 1.216388,0.52917 -0.14545,0.37905 0.0352,0.52917 0.63678,0.52917 1.72544,0 9.51981,-1.67859 16.42413,-3.53709 2.03729,-0.5484 5.887607,-1.57006 8.556257,-2.27036 9.490383,-2.49044 14.524483,-4.06373 15.216213,-4.75546 0.60862,-0.60862 0.64317,-0.85182 0.28898,-2.03403 -0.46058,-1.53726 -2.34098,-3.67912 -3.96924,-4.52112 -0.61096,-0.31594 -1.5645,-1.09114 -2.11899,-1.72267 -0.74607,-0.84972 -1.516093,-1.2619 -2.961943,-1.58547 -2.35636,-0.52733 -3.74897,-1.78259 -4.39626,-3.96268 -0.25153,-0.84716 -0.58244,-1.69904 -0.73534,-1.89307 -0.35317,-0.44814 -0.0122,-4.05694 0.38335,-4.05694 0.74509,0 1.00587,-1.39298 0.62025,-3.31313 -0.30425,-1.51497 -0.29606,-2.08732 0.0356,-2.48691 0.23693,-0.28548 0.32344,-0.69274 0.19224,-0.90502 -0.1312,-0.21228 0.0248,-0.94086 0.3466,-1.61905 0.43052,-0.90726 0.74954,-1.18091 1.20731,-1.03561 1.31816,0.41836 2.53012,-2.2902 1.61157,-3.60162 -0.40128,-0.5729 -0.4363,-0.96656 -0.15244,-1.71319 0.38955,-1.02459 0.20156,-2.08028 -0.31374,-1.76181 -0.40806,0.25219 -2.16872,-1.75082 -2.16872,-2.46725 0,-0.31088 0.3175,-0.64827 0.70555,-0.74975 0.95898,-0.25078 0.88962,-0.53901 -0.35031,-1.45573 -0.87869,-0.64964 -0.9898,-0.88641 -0.66216,-1.41105 0.30225,-0.48398 0.2607,-0.88762 -0.17885,-1.73764 -0.31492,-0.60896 -0.57257,-1.42322 -0.57257,-1.80946 0,-0.38624 -0.15875,-0.80037 -0.35277,-0.92028 -0.19403,-0.11992 -0.35278,-0.53115 -0.35278,-0.91384 0,-0.38269 -0.27781,-0.78041 -0.61736,-0.88381 -1.62545,-0.49501 -3.72548,-1.819079 -4.14286,-2.612078 -0.25531,-0.485069 -0.89475,-1.254206 -1.42098,-1.709194 L 86.117,96.198768 85.08599,97.327576 c -0.92518,1.012941 -1.16537,1.103083 -2.34004,0.878184 -0.71996,-0.137841 -2.42028,-0.288301 -3.77847,-0.334349 -1.38808,-0.04706 -3.06337,-0.347892 -3.82576,-0.686985 -1.25753,-0.559322 -1.42027,-0.561358 -2.23433,-0.02797 -0.48291,0.316413 -1.10789,1.125481 -1.38886,1.797928 -0.64689,1.548226 -1.34621,1.813236 -2.76649,1.048356 -1.09648,-0.590489 -1.18374,-0.582312 -3.172838,0.29736 -2.46289,1.08921 -2.81253,1.10791 -3.72144,0.199 -0.81986,-0.819863 -1.12937,-0.853109 -2.68962,-0.28891 -0.85731,0.31 -1.5824,0.3182 -2.83301,0.032 -1.42551,-0.326208 -1.87052,-0.288976 -2.92979,0.24511 -1.85174,0.93365 -5.59278,2.15271 -7.59897,2.47622 -4.0042,0.6457 -10.51263,3.54424 -13.93473,6.20585 -1.06715,0.83 -3.23681,2.15317 -4.82147,2.94037 -2.44533,1.21475 -2.91641,1.59159 -3.11395,2.49098 -0.12801,0.58284 -0.36824,1.14344 -0.53384,1.24579 -0.1656,0.10235 -0.98682,-0.8463 -1.82494,-2.10809 -1.70889,-2.57274 -2.42145,-2.82877 -4.4428,-1.59636 -1.53176,0.93392 -1.90409,0.89186 -1.63392,-0.18455 0.12269,-0.48884 0.0124,-1.39738 -0.24507,-2.01899 -0.25747,-0.6216 -0.4739,-1.45196 -0.48093,-1.84523 -0.01,-0.54553 -0.28461,-0.74126 -1.15933,-0.82559 -0.63059,-0.0608 -1.14652,-0.22868 -1.14652,-0.37307 0,-0.14438 0.71437,-0.76605 1.5875,-1.38149 0.87312,-0.61543 1.5875,-1.28663 1.5875,-1.49155 0,-0.20493 -0.75407,-0.69752 -1.6757,-1.09466 -1.28031,-0.55169 -2.41362,-0.71931 -4.80312,-0.7104 l -3.12743,0.0117 0.21044,-1.05218 c 0.18044,-0.9022 0.0787,-1.10227 -0.71386,-1.403597 -0.50836,-0.19328 -0.82849,-0.447224 -0.71139,-0.564321 0.11709,-0.117098 0.0519,-0.513719 -0.14486,-0.881384 -0.43251,-0.80815 0.3993,-2.156506 2.7737,-4.496139 l 1.57631,-1.553217 -0.80769,-0.60924 -0.80769,-0.60924 0.81566,-0.258879 c 0.44861,-0.142385 1.14971,-0.642444 1.558,-1.111247 0.42868,-0.492216 1.48376,-1.034249 2.49705,-1.282827 1.21265,-0.297487 1.87849,-0.679506 2.1554,-1.236645 0.22038,-0.443399 1.09763,-1.249722 1.94946,-1.791829 0.85182,-0.54211 1.75746,-1.239819 2.01252,-1.550468 0.39425,-0.48017 0.35171,-0.624781 -0.28385,-0.964918 -0.41118,-0.220056 -1.09611,-0.372304 -1.52208,-0.338332 -1.79521,0.143182 -2.36477,-0.460343 -0.86268,-0.914132 0.43656,-0.131886 1.19062,-0.599683 1.67569,-1.039551 0.48507,-0.439868 1.47505,-0.989239 2.19995,-1.220827 2.16915,-0.692986 1.79306,-0.91519 -1.53473,-0.906758 -3.07678,0.0078 -3.81391,-0.247841 -3.83481,-1.329899 -0.008,-0.414916 4.27778,-2.365671 5.19807,-2.365992 0.43656,-1.62e-4 0.79375,-0.159039 0.79375,-0.353067 0,-0.194028 0.32285,-0.352778 0.71745,-0.352778 0.4394,0 0.98678,-0.456484 1.41241,-1.177865 0.52643,-0.892235 1.16528,-1.337733 2.63446,-1.837126 1.55105,-0.527215 1.90011,-0.783399 1.74279,-1.279077 -0.11164,-0.351758 0.14716,-1.084943 0.59842,-1.695309 0.50884,-0.688237 0.78209,-1.536019 0.75889,-2.354488 l -0.0363,-1.278996 2.6032,0.220049 c 3.05122,0.257923 4.53868,-0.141503 4.22362,-1.134156 -0.17886,-0.563548 0.0392,-0.691571 1.51004,-0.886689 0.94549,-0.125423 1.82488,-0.333841 1.95418,-0.463152 0.12932,-0.129307 -0.14739,-0.642987 -0.61489,-1.141511 -1.31469,-1.401935 -0.76306,-2.255065 2.06712,-3.196886 3.10689,-1.033908 5.27563,-2.281287 5.7406,-3.301782 0.41274,-0.905863 1.64031,-1.286901 4.14592,-1.286901 0.82517,0 2.05635,-0.232326 2.73595,-0.51628 0.6796,-0.283955 3.19929,-0.68066 5.59933,-0.881567 2.40004,-0.200907 5.55433,-0.662866 7.00954,-1.026576 1.455198,-0.363714 3.632558,-0.768022 4.838558,-0.898469 3.09151,-0.334395 6.02448,-1.154539 7.07008,-1.977009 0.72139,-0.56744 1.40616,-0.697064 3.57583,-0.676896 2.87151,0.0267 5.58639,-0.629744 7.656917,-1.851385 1.06224,-0.626734 1.7707,-0.732723 4.57039,-0.68374 2.75349,0.04818 3.59108,-0.0726 4.9574,-0.714851 1.5479,-0.727597 1.79852,-0.746876 4.282853,-0.329435 1.4513,0.243862 3.29549,0.691329 4.09821,0.994368 1.04061,0.392854 2.59849,0.538466 5.42823,0.507369 3.09445,-0.03401 3.96875,0.06003 3.96875,0.426882 0,0.590511 10.57647,6.214982 11.69757,6.220665 0.45432,0.0025 1.65948,0.22606 2.67812,0.497237 1.01865,0.271176 1.85209,0.39704 1.85209,0.279699 0,-0.117344 -0.42499,-0.656942 -0.94443,-1.199112 -1.31968,-1.377453 -0.87844,-1.526336 1.15536,-0.389837 2.27564,1.271633 3.17043,2.068755 4.47083,3.982825 1.57959,2.325032 4.7512,5.233089 6.11934,5.610854 0.65469,0.180766 1.62101,0.840489 2.14738,1.466052 0.52638,0.62556 1.59463,1.422838 2.3739,1.771725 1.02826,0.460364 1.52375,0.951833 1.80661,1.791938 0.31954,0.949043 0.63368,1.208274 1.74368,1.438896 0.81199,0.168709 1.80802,0.748869 2.48839,1.449419 0.62395,0.642461 1.63207,1.374235 2.24028,1.626161 0.88339,0.365912 1.1851,0.772876 1.49995,2.023237 0.25756,1.02284 0.71172,1.771096 1.31074,2.159427 0.50413,0.326831 1.17159,0.832362 1.48323,1.123403 0.31164,0.291042 1.02863,0.887078 1.59332,1.324522 3.01616,2.336529 3.3051,2.648321 3.52105,3.799452 0.12391,0.660488 0.44681,1.384734 0.71756,1.609432 0.27073,0.224699 0.49225,0.590378 0.49225,0.812621 0,0.222242 0.42138,1.024198 0.93641,1.782124 0.7084,1.042507 0.94953,1.856994 0.99031,3.345084 0.0303,1.105398 0.32846,2.486657 0.68068,3.153266 0.34473,0.65242 0.71445,2.08117 0.82162,3.175 0.10716,1.093826 0.33079,2.253936 0.49694,2.578019 0.16615,0.324079 0.53915,2.149704 0.82887,4.056946 0.75448,4.96658 1.55427,8.68319 1.95477,9.08369 0.19027,0.19028 0.34596,1.11274 0.34596,2.04992 0,1.0236 0.35214,2.54063 0.88194,3.79937 0.5745,1.36496 0.88194,2.76191 0.88194,4.00735 0,1.05157 0.24214,3.18836 0.53808,4.74843 0.72367,3.81487 0.72612,6.54305 0.0123,13.64561 -0.33152,3.29848 -0.72951,7.42598 -0.88442,9.17223 -0.45091,5.08288 -1.05551,8.68823 -1.77478,10.58333 -0.3682,0.97014 -0.77807,2.47826 -0.91082,3.35139 -0.13275,0.87312 -0.51069,1.98437 -0.83988,2.46944 -0.32919,0.48507 -0.79805,1.57531 -1.04191,2.42274 -0.42117,1.4636 -1.84671,3.22171 -2.61228,3.22171 -0.22931,0 -0.28106,-1.34383 -0.14603,-3.79236 0.33064,-5.99577 -0.19261,-10.83775 -1.44255,-13.34884 -2.70196,-5.42811 -4.23648,-7.43138 -6.59654,-8.61158 -1.5051,-0.75265 -2.22936,-0.8786 -4.94052,-0.85913 -3.59124,0.0258 -5.86371,0.82942 -8.51149,3.00996 -0.80179,0.66031 -2.29843,1.83556 -3.32586,2.61167 -2.66507,2.01316 -4.9469,4.56435 -5.41134,6.05014 -0.18476,0.59106 -0.51636,0.75847 -1.50235,0.75847 -1.57723,0 -2.67446,1.02115 -2.80354,2.60913 -0.28581,3.51611 -0.4538,4.63105 -0.72746,4.82788 -0.4498,0.32352 -2.04671,3.86452 -2.5644,5.68633 -1.13303,3.98717 -1.73059,4.89076 -3.85157,5.82402 -1.09678,0.4826 -1.36928,0.4564 -3.73068,-0.35864 -1.40111,-0.4836 -2.76514,-0.87927 -3.03116,-0.87927 -0.80719,0 -3.16744,-1.82031 -3.16744,-2.44283 0,-0.32065 -0.3175,-1.20575 -0.70556,-1.9669 -0.38805,-0.76115 -0.70555,-1.65085 -0.70555,-1.97712 0,-0.32627 -0.22067,-0.6779 -0.49038,-0.7814 -0.72268,-0.27732 -1.64516,-2.3316 -1.43496,-3.19553 0.11718,-0.48161 -0.23141,-1.37799 -0.97712,-2.51261 -1.84356,-2.80504 -2.05555,-2.77982 -13.854493,1.64785 -1.55222,0.58248 -3.53659,1.34874 -4.40972,1.7028 -0.87312,0.35404 -2.45574,0.98788 -3.51693,1.40851 -1.06118,0.42064 -2.966177,1.50851 -4.233327,2.41748 -2.55095,1.82991 -4.76326,2.87404 -7.94835,3.75134 -3.01411,0.8302 -5.53073,1.97101 -6.35,2.87852 -0.38806,0.42985 -1.94857,1.28965 -3.4678,1.91066 -1.51923,0.62101 -2.850238,1.35846 -2.957808,1.63877 -0.10756,0.28031 0.23684,2.14106 0.76534,4.13499 0.528498,1.99393 0.907018,3.99045 0.841138,4.43672 -0.430798,2.91872 -8.332908,4.9334 -14.644958,3.73382 z m 10.11634,-18.9022 c 0.36273,-0.19413 2.53499,-0.84173 4.827238,-1.43912 2.29226,-0.59738 5.91398,-1.54288 8.04829,-2.10112 5.90684,-1.54496 19.242017,-5.60233 27.51666,-8.37225 8.42565,-2.82047 16.32778,-5.30829 20.46111,-6.44178 1.55223,-0.42566 4.25098,-1.22261 5.99723,-1.77098 4.38216,-1.37612 7.06932,-2.03054 9.34861,-2.2767 1.06715,-0.11526 2.52357,-0.47967 3.23649,-0.80982 1.36215,-0.6308 4.52462,-3.38277 4.52462,-3.93731 0,-0.17814 -0.75406,-0.42259 -1.6757,-0.54321 -0.92163,-0.12063 -2.04035,-0.36848 -2.48604,-0.55079 -1.51892,-0.62129 -5.96907,-0.39612 -7.58311,0.3837 -0.81412,0.39334 -2.11614,0.80961 -2.89338,0.92504 -0.77724,0.11543 -2.84191,0.67562 -4.58816,1.24487 -1.74625,0.56924 -4.13617,1.2605 -5.31093,1.53612 -1.17476,0.27563 -5.54038,1.60866 -9.70139,2.96231 -8.29222,2.69759 -20.077053,6.00773 -37.19879,10.44844 -3.29847,0.85549 -7.74347,2.02605 -9.877778,2.60124 -4.292,1.15669 -4.92142,1.14941 -10.23055,-0.1182 -2.75415,-0.65758 -3.85304,-0.73321 -8.29028,-0.57055 l -5.11528,0.18751 3.52778,0.48883 c 3.19025,0.44206 9.78075,2.08114 10.73212,2.66911 0.20921,0.1293 0.38038,0.45078 0.38038,0.71439 0,0.26361 0.59531,0.77018 1.32291,1.1257 0.9854,0.4815 1.56787,1.14145 2.28301,2.5867 0.52805,1.06715 1.16204,2.25777 1.40887,2.64583 0.42907,0.67456 0.45379,0.66293 0.56267,-0.26472 0.0626,-0.53365 0.41066,-1.12911 0.7734,-1.32324 z m -4.2342,0.89347 c 0,-0.31559 -0.20683,-0.43872 -0.52916,-0.31503 -0.29104,0.11169 -0.52917,0.34483 -0.52917,0.5181 0,0.17326 0.23813,0.31503 0.52917,0.31503 0.29104,0 0.52916,-0.23314 0.52916,-0.5181 z m -29.45694,-7.94857 c 0,-0.31502 -0.39259,-0.57434 -0.97014,-0.64079 -0.93815,-0.10794 -1.33441,0.51171 -0.72007,1.12605 0.43094,0.43094 1.69021,0.0694 1.69021,-0.48526 z m -5.92082,-3.75209 c 0.8311,-0.3174 1.5111,-0.68239 1.5111,-0.81108 0,-0.12869 -0.59532,-0.43989 -1.32292,-0.69155 -0.7276,-0.25167 -2.01616,-0.78295 -2.86345,-1.18063 -1.49299,-0.70074 -1.59939,-0.7045 -3.44768,-0.12188 -1.78502,0.56267 -2.25064,1.23141 -0.89999,1.29259 0.32809,0.0148 1.54904,0.47895 2.7132,1.03131 2.55328,1.21145 2.43291,1.19801 4.30974,0.48124 z M 169.45495,134.88225 c 0,-0.27512 0.38885,-0.755 0.86412,-1.06641 0.47527,-0.31141 1.02344,-1.06913 1.21816,-1.68383 0.58739,-1.85429 0.8604,-6.05421 0.4441,-6.83208 -0.25511,-0.47667 -0.26099,-0.81955 -0.0182,-1.06231 0.24275,-0.24275 0.0615,-0.79598 -0.56143,-1.71398 -0.50594,-0.74555 -0.87669,-1.68519 -0.82389,-2.08809 0.13955,-1.06495 -1.31556,-3.35589 -2.13152,-3.35589 -0.71927,0 -1.28929,-0.90463 -0.77163,-1.22457 0.16805,-0.10386 0.58555,-0.0814 0.92779,0.0499 0.46618,0.17889 0.56965,0.1017 0.41253,-0.30773 -0.13751,-0.35834 0.0843,-0.68049 0.64431,-0.93563 1.09765,-0.50012 1.19856,-2.14409 0.14847,-2.41869 -0.38806,-0.10148 -0.70556,-0.33075 -0.70556,-0.5095 0,-0.17874 -0.415,-0.27929 -0.92224,-0.22343 -0.68484,0.0754 -0.99975,-0.10278 -1.22335,-0.69221 -0.22738,-0.59939 -0.17433,-0.79375 0.21668,-0.79375 0.28479,0 0.5178,-0.28217 0.5178,-0.62706 0,-0.34488 0.26467,-1.00493 0.58816,-1.46677 0.56551,-0.80738 0.55193,-0.87088 -0.35278,-1.64908 -1.06553,-0.91653 -1.17977,-1.38162 -0.41177,-1.67633 0.94648,-0.3632 0.65812,-2.51142 -0.49142,-3.66097 -1.01391,-1.013904 -1.01627,-1.026216 -0.36063,-1.879219 0.83113,-1.081295 0.83586,-1.648879 0.0248,-2.975292 -0.48639,-0.795479 -0.55485,-1.207862 -0.27563,-1.660377 0.30358,-0.491998 0.0917,-0.860379 -1.15948,-2.015416 -1.13427,-1.047154 -1.48169,-1.601791 -1.34081,-2.140525 0.27518,-1.052269 -0.40156,-3.191955 -1.3757,-4.349651 -0.57323,-0.68125 -0.77726,-1.258041 -0.63936,-1.807482 0.15307,-0.609886 0.0289,-0.85235 -0.50841,-0.992865 -0.39102,-0.102253 -0.95535,-0.719162 -1.25406,-1.370912 -0.65122,-1.420866 -2.81188,-4.503371 -3.6743,-5.241939 -0.33985,-0.291042 -1.34355,-1.651985 -2.23046,-3.024315 -1.08558,-1.679758 -1.97394,-2.644839 -2.71843,-2.953216 -0.60822,-0.251936 -1.10586,-0.597559 -1.10586,-0.768046 0,-0.170487 -0.21869,-0.309979 -0.48597,-0.309979 -0.26729,0 -0.6836,-0.238125 -0.92514,-0.529167 -0.24155,-0.291042 -0.89598,-0.529167 -1.45431,-0.529167 -0.83565,0 -1.25601,-0.349193 -0.95553,-0.79375 0.0328,-0.04851 -0.13168,-0.445643 -0.3655,-0.882526 -0.46038,-0.860224 -2.47,-1.851501 -3.75356,-1.851501 -0.46222,0 -1.04156,-0.371281 -1.37616,-0.881945 -0.31783,-0.485069 -0.79093,-0.881944 -1.05133,-0.881944 -0.26041,0 -0.87764,-0.317931 -1.37164,-0.706508 -0.494,-0.388582 -1.13759,-0.614645 -1.43019,-0.502363 -0.51166,0.196342 -1.99422,-0.56242 -3.02097,-1.546098 -0.27856,-0.26688 -0.84261,-0.382986 -1.3013,-0.267864 -0.44528,0.11176 -0.91123,0.03877 -1.03544,-0.162204 -0.40846,-0.660912 -5.53312,-2.929777 -6.61745,-2.929777 -0.7986,0 -1.2018,-0.248642 -1.62858,-1.004309 -0.74063,-1.31137 -1.46915,-1.13865 -2.29033,0.542999 -0.62707,1.284129 -0.73669,1.349714 -1.93179,1.155774 -0.69964,-0.113534 -1.52356,-0.54574 -1.83994,-0.965179 -0.48542,-0.643534 -0.78313,-0.721219 -1.94877,-0.508511 -0.7567,0.13808 -2.23854,0.247297 -3.29296,0.2427 -1.38313,-0.006 -2.03594,0.154115 -2.34365,0.574926 -0.38992,0.533251 -0.58859,0.500609 -2.31619,-0.380577 -1.03933,-0.530123 -2.12782,-1.101397 -2.41886,-1.269496 -0.29104,-0.168098 -0.92604,-0.464241 -1.41111,-0.658096 -0.48507,-0.193851 -1.96216,-0.789414 -3.28242,-1.323471 -1.983243,-0.802237 -2.550433,-0.902687 -3.263193,-0.577931 -0.82907,0.377748 -1.22014,1.46654 -0.52674,1.46654 0.42106,0 3.897353,3.451102 3.897353,3.869111 0,0.467241 -6.664913,0.26475 -6.846633,-0.208015 -0.0944,-0.245727 -0.73152,-0.332655 -1.67984,-0.229224 -0.84023,0.09164 -2.11167,0.167266 -2.82543,0.168045 -0.96516,0.0011 -1.24931,0.1276 -1.10878,0.493805 0.10392,0.270813 -0.0161,0.492389 -0.26658,0.492389 -0.87582,0 -3.500517,1.478421 -3.500517,1.971749 0,0.641664 -1.80351,0.658513 -3.29807,0.03083 -2.12949,-0.894366 -5.95127,-2.043042 -6.14681,-1.847494 -0.10831,0.108303 0.94061,1.27301 2.33093,2.588232 1.39031,1.315226 2.52784,2.576033 2.52784,2.8018 0,0.745825 -0.76183,0.899255 -2.16526,0.436083 -1.19326,-0.393809 -1.55251,-0.376813 -2.60073,0.123045 -0.86092,0.410545 -1.15349,0.743434 -1.00149,1.139518 0.13421,0.349751 -0.79187,-0.03556 -2.46992,-1.027648 -1.47655,-0.87296 -2.96561,-1.58314 -3.30903,-1.578176 -0.34342,0.005 -0.9996,-0.107266 -1.45819,-0.249397 -0.75963,-0.23544 -0.79885,-0.193146 -0.44097,0.475555 0.21605,0.403687 0.39281,0.875507 0.39281,1.048488 0,0.172981 -1.309678,0.330009 -2.910408,0.348953 -2.46053,0.0291 -3.02843,-0.07555 -3.67389,-0.677139 -0.4199,-0.391372 -1.21365,-0.770943 -1.76389,-0.843488 -0.55023,-0.07255 -1.83136,-0.267025 -2.84697,-0.432167 -2.05532,-0.334211 -3.02584,-0.04418 -2.29564,0.686026 0.63114,0.631137 0.53975,1.002467 -0.24671,1.002467 -0.99173,0 -1.29382,0.734438 -0.53141,1.291929 0.86726,0.634157 7.84759,0.452642 8.26008,-0.214796 0.21428,-0.346703 0.49367,-0.303142 1.25494,0.195665 0.53862,0.352912 1.19125,0.672768 1.45031,0.710787 0.88651,0.130115 2.914198,1.57861 3.120718,2.229323 0.11349,0.357558 0.66957,0.841978 1.23574,1.076494 2.06818,0.856668 2.94772,3.830673 1.0638,3.597074 -0.48507,-0.06015 -1.51698,-0.192045 -2.29314,-0.293102 -1.319648,-0.171817 -1.437818,-0.113227 -1.821438,0.903111 -0.30918,0.819122 -0.62992,1.086849 -1.30201,1.086849 -1.09623,0 -1.58119,0.675703 -0.86225,1.201399 0.77587,0.56733 1.11792,1.920159 0.63317,2.504242 -0.22676,0.273234 -0.29891,0.680237 -0.16033,0.904459 0.38317,0.619996 -0.53982,1.022943 -2.35688,1.028943 -1.34389,0.0044 -1.62774,-0.104983 -1.5875,-0.61196 0.0375,-0.472217 -0.42352,-0.729569 -1.96082,-1.094637 -1.79617,-0.426548 -2.18218,-0.411449 -3.63147,0.142039 -1.7721,0.676772 -2.01,1.482495 -0.61846,2.094586 0.99236,0.436506 1.10476,1.944818 0.14493,1.944818 -0.98538,0 -1.09051,0.297734 -0.51355,1.454288 0.2906,0.582524 0.45915,1.128352 0.37455,1.212948 -0.0846,0.0846 -1.12988,-0.242795 -2.32285,-0.727544 -2.69274,-1.094154 -2.75906,-1.092817 -3.04877,0.06151 -0.20214,0.805364 -0.002,1.161482 1.37286,2.441804 1.70444,1.587328 2.2007,2.659067 0.81577,1.761752 -1.00937,-0.653983 -2.79347,-0.858503 -2.97588,-0.34114 -0.19876,0.563774 3.16914,4.014156 3.9182,4.014156 0.34345,0 1.04584,-0.295465 1.56086,-0.656586 0.51502,-0.361125 1.51901,-0.845496 2.2311,-1.076382 0.71208,-0.230882 1.46914,-0.629983 1.68235,-0.886887 0.21321,-0.256903 1.03278,-0.570258 1.82126,-0.696341 1.38593,-0.221618 2.92869,-0.938692 6.35933,-2.955805 2.119548,-1.246247 2.777078,-1.817874 2.777078,-2.414266 0,-0.283884 0.36874,-0.485973 0.88673,-0.485973 0.48771,0 1.16239,-0.136081 1.49931,-0.302405 3.29892,-1.628549 5.26563,-3.040814 5.57262,-4.0016 0.10541,-0.329911 1.07976,-1.006426 2.16523,-1.50337 1.08546,-0.496941 2.33969,-1.298579 2.78717,-1.781412 0.44747,-0.482832 1.11923,-0.87788 1.49279,-0.87788 0.37356,0 0.87683,-0.238125 1.11837,-0.529167 0.24155,-0.291041 0.75188,-0.529166 1.13409,-0.529166 0.3822,0 1.09579,-0.315338 1.58576,-0.700748 0.48997,-0.385413 1.01432,-0.624452 1.16521,-0.531195 0.15089,0.09326 0.356357,-0.04416 0.456587,-0.305368 0.10024,-0.26121 0.91182,-0.574925 1.80353,-0.697149 0.8917,-0.122219 1.97726,-0.444394 2.41236,-0.715941 0.43509,-0.271544 1.63175,-0.515715 2.65923,-0.542597 1.02749,-0.02688 2.1574,-0.22951 2.51091,-0.450282 0.81739,-0.510469 1.93662,-0.110793 1.66583,0.594865 -0.11916,0.310522 -0.001,0.526192 0.28733,0.526192 0.26908,0 0.76411,0.105477 1.10006,0.234393 0.51368,0.197122 0.573873,0.08716 0.37845,-0.691441 -0.31075,-1.238123 0.747733,-1.815469 2.810123,-1.532788 0.8356,0.114533 1.60907,0.06296 1.71881,-0.114607 0.10974,-0.177567 1.07057,-0.270912 2.13516,-0.207433 1.51821,0.09053 2.12834,-0.03617 2.82926,-0.587509 0.49721,-0.391104 1.19428,-0.624304 1.57138,-0.525692 0.37277,0.09748 0.84746,-0.02723 1.05486,-0.277135 0.53413,-0.643594 2.44795,-0.85405 3.3781,-0.371482 0.43247,0.224367 1.21317,0.915236 1.73488,1.535261 0.89774,1.066902 2.29697,1.538728 2.29697,0.774544 0,-0.194027 0.39688,-0.352777 0.88195,-0.352777 1.03785,0 1.10048,0.403122 0.27876,1.794192 -0.47718,0.807801 -0.51258,1.111712 -0.16945,1.454845 0.60217,0.602167 2.35655,-0.479919 2.37014,-1.461883 0.006,-0.397693 0.13294,-0.711598 0.28319,-0.697565 0.15024,0.01404 0.63154,-0.209296 1.06954,-0.496288 1.20246,-0.787883 2.84895,-0.510102 3.84582,0.648833 l 0.85871,0.998304 1.1459,-0.815953 c 0.93849,-0.668271 1.11147,-0.988092 0.95569,-1.76698 -0.11983,-0.599193 -0.0347,-0.963323 0.23019,-0.984267 0.23122,-0.01827 0.77758,-0.142632 1.21415,-0.276331 0.72963,-0.22345 0.79375,-0.131216 0.79375,1.141744 0,0.761654 0.19843,1.637266 0.44097,1.945802 0.57067,0.725961 1.90425,1.118606 2.19599,0.646564 0.40873,-0.661331 0.89081,-0.38512 0.89081,0.510392 0,0.640119 0.38176,1.118507 1.41112,1.768313 1.48353,0.936512 1.87088,1.940278 0.74875,1.940278 -0.3643,0 -0.8469,0.222356 -1.07245,0.494122 -0.33913,0.408633 -0.10546,0.536017 1.3506,0.736279 1.51292,0.208078 1.93437,0.45413 2.99511,1.748624 1.09145,1.331969 1.21898,1.696184 1.10098,3.144276 -0.0806,0.98871 0.0126,1.63781 0.23514,1.63781 0.20273,0 0.28079,0.335792 0.17346,0.746206 -0.2238,0.855822 0.41728,2.076016 1.09073,2.076016 0.25045,0 0.54675,0.238125 0.65843,0.529167 0.11169,0.291042 0.50661,0.529167 0.8776,0.529167 0.52677,0 0.63013,0.1769 0.47186,0.807519 -0.11147,0.444136 -0.039,1.237886 0.16093,1.763889 0.317,0.833751 0.27694,0.95637 -0.31239,0.95637 -0.3718,0 -0.77412,0.15875 -0.89403,0.352778 -0.11992,0.194027 -0.52616,0.352777 -0.90277,0.352777 -0.96157,0 -0.8592,0.623627 0.10902,0.664087 1.72995,0.07229 4.14452,0.477855 4.13392,0.694351 -0.0316,0.64479 -1.01731,1.453078 -1.53146,1.25578 -0.38339,-0.147119 -0.57399,-0.032 -0.57399,0.34665 0,0.311802 0.17299,0.56691 0.38443,0.56691 0.47274,0 1.70442,1.43382 1.7205,2.002868 0.006,0.228452 -0.38514,0.727548 -0.87021,1.109105 -0.98744,0.776718 -1.15434,1.474142 -0.35278,1.474142 0.62602,0 0.70867,0.90575 0.11608,1.27199 -0.27317,0.16883 -0.1507,0.35238 0.36154,0.54186 0.61507,0.22753 0.72861,0.4699 0.55124,1.17663 -0.16569,0.66015 -0.0844,0.89007 0.31461,0.89007 0.40246,0 0.53801,0.39998 0.53801,1.5875 0,1.61405 -0.56154,2.16597 -0.89731,0.88195 -0.14455,-0.55276 -0.4812,-0.70556 -1.55448,-0.70556 -0.75348,0 -1.36996,-0.0722 -1.36996,-0.16035 0,-0.31321 1.80168,-1.95632 2.14511,-1.95632 0.22087,0 0.21042,-0.25922 -0.0284,-0.70555 -0.38464,-0.71871 -1.76389,-0.99456 -1.76389,-0.35278 0,0.19403 -0.26988,0.35278 -0.59972,0.35278 -0.45293,0 -0.50015,-0.0996 -0.1929,-0.40682 0.55068,-0.55068 -0.0839,-1.70985 -0.93611,-1.70985 -0.35506,0 -1.05664,-0.32335 -1.55906,-0.71855 -0.67778,-0.533146 -1.07693,-0.630819 -1.54688,-0.37853 -0.34836,0.187011 -0.92215,0.43021 -1.27507,0.54043 -0.45539,0.14222 -0.57635,0.40625 -0.41665,0.90943 0.14749,0.46469 0.0416,0.77944 -0.30738,0.91334 -0.43491,0.16689 -0.45939,0.37655 -0.13371,1.14479 0.60083,1.41727 0.87998,1.63097 1.47998,1.13301 0.29679,-0.24632 0.7682,-0.36014 1.04757,-0.25293 0.27937,0.1072 0.98304,0.0156 1.56371,-0.20359 0.80649,-0.30442 1.17928,-0.29601 1.57885,0.0356 0.46156,0.38305 0.46184,0.5569 0.002,1.47778 -0.28635,0.57401 -0.74714,1.04365 -1.02397,1.04365 -1.68003,0 0.99688,2.77293 3.36057,3.48111 1.30054,0.38965 1.9923,1.18252 1.594,1.82699 -0.10385,0.16804 -0.45033,0.20518 -0.76994,0.0825 -0.49143,-0.18858 -0.47608,-0.079 0.0995,0.70987 0.37433,0.51308 0.87904,0.93786 1.12158,0.94396 0.69423,0.0175 0.515,0.97756 -0.28741,1.53959 -0.4006,0.2806 -1.0356,0.42983 -1.41111,0.33164 -1.08685,-0.28422 -0.79249,0.55275 0.4638,1.31873 1.38819,0.8464 1.92887,0.90265 1.29123,0.13435 -0.40005,-0.48204 -0.36989,-0.64117 0.20062,-1.05834 1.19993,-0.87741 2.14506,-0.47665 1.17162,0.49679 -0.32926,0.32926 -0.29006,0.42333 0.17639,0.42333 0.32985,0 0.59972,-0.23812 0.59972,-0.52917 0,-0.29104 0.23813,-0.52916 0.52917,-0.52916 0.29104,0 0.52916,0.23812 0.52916,0.52916 0,0.29105 -0.15875,0.52917 -0.35277,0.52917 -0.77178,0 -0.28897,0.65878 0.74766,1.02015 0.85684,0.2987 1.0594,0.54053 0.91506,1.09249 -0.10196,0.38989 -0.0312,0.80417 0.15726,0.92064 0.20026,0.12377 0.10104,0.47874 -0.23877,0.85422 -0.54369,0.60077 -0.5316,0.66912 0.18627,1.05331 0.42222,0.22597 1.13321,0.31911 1.57998,0.20698 1.00598,-0.25249 1.31675,0.40537 0.89167,1.88755 -0.25886,0.90258 -0.21104,1.07855 0.29311,1.07855 0.33134,0 0.96552,-0.25432 1.4093,-0.56515 0.44377,-0.31083 0.91565,-0.44785 1.04863,-0.30448 0.13297,0.14337 0.0433,0.33154 -0.1992,0.41816 -0.24254,0.0866 -0.44097,0.39381 -0.44097,0.68264 0,0.43119 0.34959,0.48148 1.95389,0.28103 1.60594,-0.20065 2.07712,-0.13261 2.64584,0.38207 0.38056,0.34441 0.69193,0.85105 0.69193,1.12588 0,0.27483 0.23813,0.73782 0.52917,1.02886 0.74519,0.74519 0.65733,1.44887 -0.21547,1.72589 -0.7375,0.23408 -0.73668,0.24031 0.0851,0.65 0.45634,0.22751 0.87899,0.72717 0.93922,1.11035 0.17868,1.13684 0.8642,2.28419 1.36475,2.28419 0.25675,0 0.88723,0.47184 1.40106,1.04852 0.93376,1.04798 1.54066,1.11633 1.54066,0.17352 z m -26.81111,-32.97204 c 0,-0.19402 0.23812,-0.35277 0.52916,-0.35277 0.29105,0 0.52917,0.15875 0.52917,0.35277 0,0.19403 -0.23812,0.35278 -0.52917,0.35278 -0.29104,0 -0.52916,-0.15875 -0.52916,-0.35278 z M 54.096612,83.897724 c 0,-0.205479 0.15875,-0.275484 0.35278,-0.155568 0.19403,0.119917 0.35278,0.288036 0.35278,0.373599 0,0.08556 -0.15875,0.155568 -0.35278,0.155568 -0.19403,0 -0.35278,-0.16812 -0.35278,-0.373599 z M 129.23828,69.465726 c 0,-0.187935 0.23813,-0.250328 0.52917,-0.138645 0.29104,0.111686 0.52916,0.265451 0.52916,0.341707 0,0.07625 -0.23812,0.138646 -0.52916,0.138646 -0.29104,0 -0.52917,-0.153769 -0.52917,-0.341708 z M 75.96884,65.5741 c 0,-0.388055 0.0738,-0.705555 0.16398,-0.705555 0.0902,0 0.33389,0.3175 0.54157,0.705555 0.30138,0.563139 0.26829,0.705556 -0.16398,0.705556 -0.30639,0 -0.54157,-0.306395 -0.54157,-0.705556 z m 15.522217,-5.53557 c -0.98462,-0.453799 -1.10075,-0.600873 -0.57332,-0.726098 0.3722,-0.08837 0.98495,0.166504 1.40132,0.582874 0.87701,0.877016 0.79494,0.891215 -0.828,0.143224 z m 30.338893,-2.011409 c 0,-0.595827 0.86195,-0.972904 1.5875,-0.694485 0.7662,0.294023 0.64963,0.718559 -0.26459,0.963556 -1.15681,0.310018 -1.32291,0.276232 -1.32291,-0.269071 z m 20.10833,65.049759 c 0,-0.19403 -0.15875,-0.35278 -0.35278,-0.35278 -0.19402,0 -0.35277,0.15875 -0.35277,0.35278 0,0.19403 0.15875,0.35278 0.35277,0.35278 0.19403,0 0.35278,-0.15875 0.35278,-0.35278 z m 5.96303,-4.01575 c 0.31073,-0.3744 0.28776,-0.53294 -0.0987,-0.68125 -0.58529,-0.22459 -0.92544,0.0323 -0.92544,0.69885 0,0.61041 0.51022,0.60164 1.02414,-0.0176 z m -1.02414,-0.92314 c 0,-0.19403 -0.3175,-0.35278 -0.70556,-0.35278 -0.38805,0 -0.70555,0.15875 -0.70555,0.35278 0,0.19403 0.3175,0.35278 0.70555,0.35278 0.38806,0 0.70556,-0.15875 0.70556,-0.35278 z m -1.25122,-2.44274 c 0.24814,-0.40151 -0.75584,-0.63475 -1.86802,-0.43397 -0.61233,0.11054 -0.70365,0.22681 -0.35278,0.44919 0.63217,0.40068 1.96942,0.39151 2.2208,-0.0152 z M 17.407722,107.35344 c 0,-0.097 -0.3175,-0.007 -0.70555,0.20122 -0.38806,0.20768 -0.70556,0.45698 -0.70556,0.55399 0,0.097 0.3175,0.007 0.70556,-0.20121 0.38805,-0.20768 0.70555,-0.45698 0.70555,-0.554 z m 13.55107,-7.420469 c 0.30579,-0.117348 0.47245,-0.348538 0.37033,-0.513761 -0.22553,-0.364917 -1.2214,-0.02893 -1.2214,0.412079 0,0.372131 0.11156,0.385461 0.85107,0.101682 z m 9.18803,-2.986025 c -0.11163,-0.180618 -0.55078,-0.323352 -0.97589,-0.317182 -0.74752,0.01087 -0.75092,0.02787 -0.1036,0.517867 0.68961,0.521991 1.43992,0.382503 1.07949,-0.200685 z m -3.13108,-1.386734 c 0.27517,0 0.50032,-0.169446 0.50032,-0.376551 0,-0.208111 -0.29692,-0.282311 -0.66378,-0.165876 -0.41696,0.132337 -0.73994,0.01221 -0.86859,-0.323057 -0.23961,-0.624409 -1.28985,-0.343775 -1.28985,0.344664 0,0.542075 0.6834,0.880428 1.35177,0.669259 0.2584,-0.08164 0.69496,-0.148439 0.97013,-0.148439 z m 7.10755,0.13964 c -0.11722,-0.117224 -0.4215,-0.129755 -0.67616,-0.02783 -0.28142,0.112614 -0.19783,0.196208 0.21314,0.213134 0.37189,0.01531 0.58025,-0.06806 0.46302,-0.185286 z m 3.04534,-2.079918 c 0.14671,-0.382301 -0.0386,-0.529166 -0.66781,-0.529166 -0.47898,0 -0.87087,-0.15875 -0.87087,-0.352778 0,-0.194028 -0.23813,-0.352778 -0.52917,-0.352778 -0.74085,0 -0.66406,1.324123 0.0882,1.520709 1.21336,0.317087 1.77963,0.235281 1.97966,-0.285987 z m -7.28524,-2.839254 c -0.59503,-0.591287 -0.96793,-0.704681 -1.57358,-0.478508 -1.06471,0.397602 -1.01367,0.582853 0.52916,1.920628 l 1.32292,1.147085 0.25066,-0.907139 c 0.18965,-0.686312 0.0608,-1.095788 -0.52916,-1.682066 z m -5.98314,-1.658662 c -0.0808,-0.242535 -0.44612,-0.498969 -0.81192,-0.569857 -0.57541,-0.111506 -0.60132,-0.05205 -0.19215,0.440973 0.55957,0.67425 1.21361,0.7582 1.00407,0.128884 z m 17.63889,-10.406945 c 0.0922,-0.276871 -0.19232,-0.440972 -0.76452,-0.440972 -0.89036,0 -1.16003,0.339277 -0.66396,0.835342 0.36293,0.362931 1.25867,0.115637 1.42848,-0.39437 z M 117.18151,75.21653 c -0.17165,-0.885039 -0.99601,-1.006564 -0.99601,-0.146827 0,0.433328 0.22779,0.734953 0.55504,0.734953 0.32852,0 0.50848,-0.240019 0.44097,-0.588126 z m -2.48796,-0.889131 c -0.0768,-0.23041 -0.32827,-0.481799 -0.55881,-0.558645 -0.25779,-0.08593 -0.33663,0.07535 -0.20479,0.418924 0.24607,0.641248 0.97525,0.774672 0.7636,0.139721 z M 53.391062,61.340767 c 0,-0.194028 -0.2475,-0.352778 -0.54999,-0.352778 -0.30249,0 -0.45187,0.15875 -0.33196,0.352778 0.11992,0.194027 0.36742,0.352777 0.54999,0.352777 0.18258,0 0.33196,-0.15875 0.33196,-0.352777 z m 10.75972,-1.058334 c -0.11991,-0.194027 -0.37678,-0.352777 -0.5708,-0.352777 -0.19403,0 -0.25467,0.15875 -0.13475,0.352777 0.11991,0.194028 0.37677,0.352778 0.5708,0.352778 0.19403,0 0.25467,-0.15875 0.13475,-0.352778 z m -1.5875,-0.861123 c 0,-0.37235 -0.67702,-0.528782 -0.87839,-0.202964 -0.12187,0.197192 0.0259,0.358532 0.3284,0.358532 0.3025,0 0.54999,-0.07001 0.54999,-0.155568 z M 137.9639,181.0738 c -0.51486,-0.51486 -0.23589,-1.19924 0.98753,-2.42266 1.30856,-1.30856 2.85036,-1.65988 3.2069,-0.73074 0.10885,0.28365 0.50305,0.61258 0.876,0.73095 0.8787,0.27889 0.58044,0.72025 -1.0482,1.55112 -1.53758,0.78442 -3.65126,1.2423 -4.02223,0.87133 z M 26.491752,173.18102 c -0.66975,-0.94627 -0.82348,-2.12636 -0.27699,-2.12636 0.51841,0 1.12883,1.35064 1.0047,2.22306 -0.10992,0.77258 -0.11271,0.77221 -0.72771,-0.0967 z m 117.997608,-0.80418 c -1.44425,-0.46302 -1.79065,-1.59095 -0.93397,-3.04119 0.49143,-0.83193 0.5348,-1.16484 0.20372,-1.56377 -0.28232,-0.34017 -0.31592,-0.78278 -0.10219,-1.34605 0.29581,-0.77963 0.33731,-0.73902 0.58436,0.57189 0.14626,0.77611 0.7253,1.99653 1.28676,2.71205 0.76994,0.98121 0.96507,1.52309 0.79396,2.20486 -0.25006,0.99629 -0.20344,0.98453 -1.83264,0.46221 z m 10.47388,-4.8123 c -1.54856,-1.2673 -2.47785,-1.7536 -5.12301,-2.68092 -1.90703,-0.66856 -2.30287,-0.70236 -3.47462,-0.29669 -1.67564,0.58013 -2.66124,0.13047 -2.66884,-1.2176 -0.003,-0.52675 -0.15065,-1.1873 -0.32817,-1.46788 -0.40588,-0.64155 0.16151,-1.7829 0.88632,-1.7829 0.89677,0 7.63911,2.09664 8.23399,2.56049 2.62524,2.04702 4.79511,5.18478 3.94764,5.70854 -0.14653,0.0906 -0.80952,-0.27981 -1.47331,-0.82304 z m 6.8363,-5.7703 c -0.31106,-0.41133 -0.71362,-1.23677 -3.05385,-6.2618 -0.98762,-2.12066 -3.14597,-4.57195 -4.05945,-4.61042 -0.31742,-0.0134 -0.9931,-0.0797 -1.50152,-0.14745 -1.34872,-0.17966 -3.13255,1.01493 -3.13255,2.09779 0,0.60402 -0.30701,1.03683 -0.98367,1.38675 -1.01804,0.52644 -4.72606,1.32066 -4.98266,1.06723 -0.08,-0.079 0.0259,-0.51983 0.23534,-0.97955 0.49235,-1.08059 2.83876,-2.99243 5.73099,-4.6696 2.13996,-1.24093 2.48546,-1.3299 5.17506,-1.33267 2.61737,-0.003 3.01955,0.0923 4.3801,1.03483 2.18807,1.51578 2.78589,2.68175 2.57053,5.01345 -0.1155,1.25048 0.004,2.37366 0.34116,3.2173 1.12501,2.81169 0.59102,5.91713 -0.71948,4.18414 z M 26.932722,161.17688 c 0,-0.19403 0.16812,-0.35278 0.3736,-0.35278 0.20548,0 0.27549,0.15875 0.15557,0.35278 -0.11992,0.19403 -0.28804,0.35278 -0.3736,0.35278 -0.0856,0 -0.15557,-0.15875 -0.15557,-0.35278 z"
       style="fill:#000000;stroke-width:0.35277778;image-rendering:auto" />
  </g>
</svg>
